<!--?xml version="1.0" standalone="no"?-->
              <svg id="sw-js-blob-svg" viewBox="0 0 100 100" xmlns="http://www.w3.org/2000/svg" version="1.1">
                    <defs> 
                        <linearGradient id="sw-gradient" x1="0" x2="1" y1="1" y2="0">
                            <stop id="stop1" stop-color="rgba(0, 14.266, 208.397, 1)" offset="0%"></stop>
                            <stop id="stop2" stop-color="rgba(255, 11.607, 160.529, 1)" offset="100%"></stop>
                        </linearGradient>
                    </defs>
                <path fill="url(#sw-gradient)" d="M25.3,-28.1C32.6,-24.1,38.1,-15.9,37.2,-8.4C36.2,-1,28.8,5.7,23.4,12.1C18,18.4,14.5,24.4,8.6,28.8C2.7,33.2,-5.7,35.9,-10.6,32.6C-15.5,29.3,-17,20,-19.5,12.7C-22,5.4,-25.4,0.2,-25.6,-5.5C-25.8,-11.2,-22.8,-17.4,-18,-21.8C-13.2,-26.2,-6.6,-28.8,1.2,-30.3C9,-31.7,18.1,-32,25.3,-28.1Z" width="100%" height="100%" transform="translate(50 50)" stroke-width="0" style="transition: all 0.3s ease 0s;" stroke="url(#sw-gradient)"></path>
              </svg>